<?xml version="1.0" standalone="no"?>
<!DOCTYPE svg PUBLIC "-//W3C//DTD SVG 20010904//EN"
 "http://www.w3.org/TR/2001/REC-SVG-20010904/DTD/svg10.dtd">
<svg version="1.0" xmlns="http://www.w3.org/2000/svg"
 width="256.000000pt" height="256.000000pt" viewBox="0 0 256.000000 256.000000"
 preserveAspectRatio="xMidYMid meet">
<metadata>
Created by potrace 1.11, written by Peter Selinger 2001-2013
</metadata>
<g transform="translate(0.000000,256.000000) scale(0.100000,-0.100000)"
fill="#000000" stroke="none">
<path d="M1200 2135 c0 -8 -7 -15 -15 -15 -8 0 -15 -7 -15 -15 0 -8 -7 -15
-15 -15 -8 0 -15 -7 -15 -15 0 -8 -7 -15 -15 -15 -8 0 -15 -9 -15 -20 0 -18
-7 -20 -60 -20 l-60 0 0 35 c0 24 -5 35 -15 35 -10 0 -15 -11 -15 -35 0 -35 0
-35 -45 -35 -33 0 -45 -4 -45 -15 0 -12 -18 -15 -105 -15 -87 0 -105 3 -105
15 0 8 -7 15 -15 15 -8 0 -15 -7 -15 -15 0 -11 -12 -15 -45 -15 -33 0 -45 -4
-45 -15 0 -8 7 -15 15 -15 10 0 15 -10 15 -30 0 -20 -5 -30 -15 -30 -8 0 -15
-7 -15 -15 0 -10 -10 -15 -30 -15 -20 0 -30 -5 -30 -15 0 -8 -7 -15 -15 -15
-8 0 -15 -7 -15 -15 0 -8 -7 -15 -15 -15 -8 0 -15 -9 -15 -20 0 -11 -7 -20
-15 -20 -11 0 -15 -12 -15 -45 0 -33 4 -45 15 -45 8 0 15 -7 15 -15 0 -8 7
-15 15 -15 12 0 15 -17 15 -95 0 -78 3 -95 15 -95 11 0 15 -12 15 -45 0 -33 4
-45 15 -45 10 0 15 -10 15 -30 0 -20 5 -30 15 -30 12 0 15 -19 15 -110 0 -91
-3 -110 -15 -110 -8 0 -15 -7 -15 -15 0 -8 -7 -15 -15 -15 -8 0 -15 -7 -15
-15 0 -10 10 -15 30 -15 l30 0 0 -80 c0 -64 3 -80 15 -80 8 0 15 -7 15 -15 0
-8 7 -15 15 -15 12 0 15 -17 15 -95 0 -78 3 -95 15 -95 10 0 15 -10 15 -30 0
-27 -3 -30 -30 -30 l-30 0 0 -220 c0 -189 2 -220 15 -220 8 0 15 -7 15 -15 0
-8 7 -15 15 -15 8 0 15 -7 15 -15 0 -12 13 -15 60 -15 l60 0 0 45 c0 43 1 45
30 45 20 0 30 -5 30 -15 0 -8 7 -15 15 -15 8 0 15 -7 15 -15 0 -8 7 -15 15
-15 8 0 15 -7 15 -15 0 -12 17 -15 90 -15 73 0 90 3 90 15 0 8 7 15 15 15 8 0
15 7 15 15 0 8 7 15 15 15 12 0 15 19 15 110 0 91 -3 110 -15 110 -12 0 -15
17 -15 95 0 78 3 95 15 95 10 0 15 10 15 30 0 20 5 30 15 30 8 0 15 -7 15 -15
0 -8 7 -15 15 -15 8 0 15 -7 15 -15 0 -12 14 -15 70 -15 82 0 98 8 181 93 59
60 69 66 69 42 0 -8 -7 -15 -15 -15 -10 0 -15 -10 -15 -30 0 -20 -5 -30 -15
-30 -10 0 -15 -10 -15 -30 0 -20 -5 -30 -15 -30 -8 0 -15 -7 -15 -15 0 -8 7
-15 15 -15 10 0 15 -11 15 -35 0 -24 -5 -35 -15 -35 -11 0 -15 -12 -15 -45 0
-33 -4 -45 -15 -45 -10 0 -15 -10 -15 -30 0 -20 -5 -30 -15 -30 -12 0 -15 -17
-15 -95 l0 -95 90 0 c73 0 90 -3 90 -15 0 -12 18 -15 105 -15 l105 0 0 45 c0
43 -1 45 -30 45 -20 0 -30 5 -30 15 0 8 -7 15 -15 15 -8 0 -15 7 -15 15 0 8
-7 15 -15 15 -8 0 -15 9 -15 20 0 11 -7 20 -15 20 -8 0 -15 7 -15 15 0 8 -7
15 -15 15 -11 0 -15 12 -15 45 0 33 4 45 15 45 8 0 15 7 15 15 0 10 10 15 30
15 29 0 30 1 30 50 0 38 4 50 15 50 11 0 15 12 15 45 0 33 4 45 15 45 11 0 15
12 15 45 0 33 4 45 15 45 12 0 15 14 15 65 0 51 3 65 15 65 10 0 15 10 15 30
0 20 5 30 15 30 8 0 15 -7 15 -15 0 -8 7 -15 15 -15 10 0 15 -10 15 -30 0 -20
-5 -30 -15 -30 -10 0 -15 -11 -15 -35 0 -24 -5 -35 -15 -35 -11 0 -15 -12 -15
-45 0 -43 1 -45 30 -45 27 0 30 3 30 30 0 20 5 30 15 30 10 0 15 11 15 35 0
24 5 35 15 35 10 0 15 10 15 30 0 29 2 30 45 30 29 0 45 -4 45 -12 0 -7 20
-22 43 -32 23 -11 64 -39 91 -63 l49 -44 23 22 c30 28 27 31 -86 105 -90 59
-90 59 -90 102 0 31 -4 42 -15 42 -8 0 -15 -7 -15 -15 0 -10 -10 -15 -30 -15
-20 0 -30 5 -30 15 0 10 -10 15 -30 15 -20 0 -30 5 -30 15 0 10 -10 15 -30 15
-23 0 -30 4 -30 20 0 16 -7 20 -30 20 -20 0 -30 5 -30 15 0 8 -7 15 -15 15
-12 0 -15 15 -15 75 0 60 -3 75 -15 75 -10 0 -15 11 -15 35 0 24 -5 35 -15 35
-12 0 -15 13 -15 60 0 47 -3 60 -15 60 -11 0 -15 12 -15 45 0 43 -1 45 -30 45
-20 0 -30 5 -30 15 0 8 -7 15 -15 15 -11 0 -15 12 -15 50 0 38 -4 50 -15 50
-8 0 -15 7 -15 15 0 8 -7 15 -15 15 -8 0 -15 7 -15 15 0 8 -7 15 -15 15 -8 0
-15 7 -15 15 0 8 -7 15 -15 15 -11 0 -15 12 -15 50 0 38 4 50 15 50 8 0 15 7
15 15 0 8 7 15 15 15 8 0 15 7 15 15 0 8 7 15 15 15 11 0 15 12 15 45 0 33 -4
45 -15 45 -10 0 -15 10 -15 30 0 20 -5 30 -15 30 -10 0 -15 11 -15 35 0 24 -5
35 -15 35 -8 0 -15 7 -15 15 0 10 -10 15 -30 15 -20 0 -30 5 -30 15 0 12 -14
15 -70 15 -56 0 -70 -3 -70 -15z m230 -1417 c0 -14 -21 -42 -57 -75 -50 -47
-62 -53 -100 -53 -32 0 -43 4 -43 15 0 8 -7 15 -15 15 -8 0 -15 7 -15 15 0 8
-7 15 -15 15 -10 0 -15 10 -15 30 l0 30 100 0 c82 0 100 3 100 15 0 10 10 15
30 15 24 0 30 -4 30 -22z"/>
</g>
</svg>
