<?xml version="1.0" standalone="no"?>
<!DOCTYPE svg PUBLIC "-//W3C//DTD SVG 20010904//EN"
 "http://www.w3.org/TR/2001/REC-SVG-20010904/DTD/svg10.dtd">
<svg version="1.0" xmlns="http://www.w3.org/2000/svg"
 width="96.000000pt" height="96.000000pt" viewBox="0 0 96.000000 96.000000"
 preserveAspectRatio="xMidYMid meet">
<metadata>
Created by potrace 1.11, written by Peter Selinger 2001-2013
</metadata>
<g transform="translate(0.000000,96.000000) scale(0.100000,-0.100000)"
fill="#000000" stroke="none">
<path d="M233 603 c2 -124 3 -128 25 -131 23 -3 24 0 24 73 0 181 -1 185 -27
185 l-24 0 2 -127z"/>
<path d="M300 700 c0 -25 5 -31 33 -39 17 -5 26 -10 20 -10 -23 -2 -53 -40
-53 -68 0 -14 11 -46 25 -70 19 -32 32 -43 50 -43 30 0 31 9 5 61 -19 36 -19
42 -5 62 36 51 5 137 -50 137 -21 0 -25 -5 -25 -30z"/>
<path d="M578 700 c-3 -16 0 -34 6 -40 7 -7 6 -10 -2 -10 -20 0 -14 -48 7 -60
33 -17 41 -12 41 30 0 47 17 60 70 53 41 -6 55 6 45 37 -6 18 -15 20 -85 20
l-78 0 -4 -30z"/>
<path d="M644 626 c-10 -26 1 -50 25 -56 29 -7 39 -28 17 -36 -10 -4 -16 -18
-16 -35 0 -23 5 -29 20 -29 33 0 70 44 70 82 0 41 -9 55 -45 74 -35 18 -64 18
-71 0z"/>
<path d="M424 606 c-3 -8 -4 -25 -2 -38 4 -33 49 -36 79 -6 16 17 20 19 16 6
-4 -10 -2 -18 2 -18 13 0 18 20 13 46 -3 18 -11 21 -53 23 -35 1 -51 -3 -55
-13z"/>
<path d="M572 548 c-15 -15 3 -49 22 -42 9 3 13 -1 13 -13 -2 -13 5 -18 23
-18 20 0 25 4 22 24 -2 25 -36 61 -57 61 -6 0 -16 -5 -23 -12z"/>
<path d="M467 373 c-3 -5 -20 -10 -39 -11 -49 -4 -60 -19 -47 -67 6 -22 12
-67 13 -100 l1 -59 33 -3 c30 -3 32 -1 32 29 0 17 3 28 7 25 3 -4 12 1 20 11
12 15 13 12 8 -25 -6 -41 -6 -43 19 -43 26 0 36 15 15 22 -9 3 -8 11 2 28 7
14 12 28 11 32 -1 3 10 5 24 3 l26 -2 -31 28 c-17 15 -31 34 -31 41 0 8 -6 20
-12 27 -7 6 -13 24 -13 39 0 26 -27 43 -38 25z"/>
</g>
</svg>
